<?xml version="1.0" encoding="utf-8"?>
<!-- Generator: Adobe Illustrator 16.0.0, SVG Export Plug-In . SVG Version: 6.00 Build 0)  -->
<!DOCTYPE svg PUBLIC "-//W3C//DTD SVG 1.1//EN" "http://www.w3.org/Graphics/SVG/1.1/DTD/svg11.dtd">
<svg version="1.1" id="logo_1_" xmlns="http://www.w3.org/2000/svg" xmlns:xlink="http://www.w3.org/1999/xlink" x="0px" y="0px"
	 width="393px" height="314px" viewBox="0 0 393 314" enable-background="new 0 0 393 314" xml:space="preserve">
<g id="MedWyz">
	<text transform="matrix(1.0008 0 0 1 -2.062 298.0508)"><tspan x="0" y="0" fill="#2883B2" font-family="'GothamRounded-Medium'" font-size="90.1665">Med</tspan><tspan x="193.225" y="0" fill="#626262" font-family="'GothamRounded-Book'" font-size="90.1665">Wyz</tspan></text>
</g>
<g id="Forma_1">
	<g>
		<path fill="#2883B2" d="M273.199,52.38c-4.42-4.442-9.788-6.664-16.101-6.664S245.42,47.938,241,52.38
			c-4.418,4.444-6.627,9.839-6.627,16.188c0,4.919,1.4,9.323,4.201,13.21c2.802,3.889,6.451,6.664,10.951,8.331v47.014
			c0,8.412-3.711,15.594-11.127,21.544c-7.42,5.95-16.336,8.926-26.756,8.926c-10.416,0-19.333-2.976-26.752-8.926
			c-7.417-5.95-11.127-13.132-11.127-21.544v-15.71c12.943-1.586,23.754-6.666,32.436-15.236
			c8.68-8.567,13.021-18.566,13.021-29.993V15.247c0-2.063-0.75-3.85-2.25-5.357c-1.498-1.506-3.275-2.261-5.328-2.261
			c-0.473,0-1.104,0.08-1.893,0.238c-1.342-2.382-3.196-4.284-5.564-5.714c-2.365-1.429-4.931-2.143-7.693-2.143
			c-4.182,0-7.753,1.49-10.713,4.464c-2.959,2.976-4.439,6.566-4.439,10.772c0,4.204,1.479,7.795,4.439,10.771
			c2.96,2.976,6.531,4.463,10.713,4.463c2.604,0,5.129-0.713,7.575-2.142v47.846c0,8.412-3.708,15.593-11.126,21.544
			c-7.419,5.949-16.337,8.924-26.753,8.924s-19.334-2.975-26.753-8.924c-7.417-5.95-11.127-13.13-11.127-21.544V28.339
			c2.445,1.429,4.972,2.142,7.576,2.142c4.181,0,7.752-1.487,10.712-4.463c2.959-2.976,4.438-6.566,4.438-10.771
			c0-4.206-1.479-7.797-4.438-10.772c-2.96-2.974-6.531-4.464-10.712-4.464c-2.763,0-5.328,0.714-7.695,2.143
			c-2.367,1.429-4.222,3.332-5.563,5.714c-0.791-0.158-1.421-0.238-1.895-0.238c-2.053,0-3.828,0.755-5.328,2.261
			c-1.5,1.508-2.249,3.294-2.249,5.357v60.938c0,11.426,4.339,21.422,13.021,29.992s19.493,13.65,32.435,15.238v15.71
			c0,12.617,5.189,23.388,15.567,32.312c10.379,8.928,22.866,13.39,37.465,13.39c14.603,0,27.088-4.462,37.468-13.39
			c10.379-8.924,15.565-19.694,15.565-32.312V90.109c4.499-1.667,8.148-4.442,10.951-8.331c2.802-3.888,4.204-8.291,4.204-13.21
			C279.831,62.221,277.62,56.824,273.199,52.38z M262.43,73.924c-1.501,1.508-3.276,2.261-5.328,2.261s-3.826-0.753-5.326-2.261
			s-2.249-3.293-2.249-5.355c0-2.063,0.749-3.85,2.249-5.357c1.5-1.506,3.274-2.261,5.326-2.261s3.827,0.755,5.328,2.261
			c1.498,1.508,2.247,3.294,2.247,5.357S263.928,72.416,262.43,73.924z"/>
	</g>
</g>
<g id="Group_1_1_">
	<g id="Ellipse_1">
		<g>
			<ellipse fill="#626262" cx="152.002" cy="52.597" rx="7.52" ry="7.514"/>
		</g>
	</g>
	<g id="Ellipse_1_copy">
		<g>
			<ellipse fill="#626262" cx="182.08" cy="52.597" rx="7.52" ry="7.514"/>
		</g>
	</g>
</g>
<g id="Shape_3">
	<g>
		<path fill="#626262" d="M150.749,77.644c0,0,15.039,17.532,33.838,0H150.749z"/>
	</g>
</g>
</svg>
